<?xml version="1.0" encoding="UTF-8"?>
<svg id="Capa_1" data-name="Capa 1" xmlns="http://www.w3.org/2000/svg" viewBox="0 0 448.73 446.62">
  <defs>
    <style>
      .cls-1 {
        fill: #ffd69e;
      }
    </style>
  </defs>
  <path class="cls-1" d="M158.43,445.2c1.12-2.89,2.15-5.82,3.38-8.66,11.06-25.35,21.37-51,28.89-77.64,3.34-11.84,5.18-24.11,8.51-35.96,5.54-19.7,11.58-39.27,17.83-58.76,1.04-3.26,4.27-5.8,6.42-8.72,5.89-7.99,12.41-15.6,17.43-24.1,5.43-9.2,4.01-19.78,2.42-29.8-1.56-9.86-4.55-19.42-10.86-27.8,1.49,8.65,3.39,16.96,4.27,25.38,2.01,19.35-5.72,40.65-23.89,51.59-9.85,5.93-21.1,6.37-31.3-.38-4.32-2.86-7.22-3.72-11.51,.44-8.68,8.41-20,12.37-31.14,16.42-5.32,1.93-10.65,3.86-16.01,5.7-3.36,1.15-5.03,3.35-5.61,6.89-1.74,10.57-10.3,16.86-21.06,15.64-2.31-.26-4.6-.81-6.91-1.09-9.72-1.15-16.28-6.16-19.47-15.52-1.07-3.15-2.17-6.35-3.73-9.27-6.5-12.14-2.75-23,4.63-32.86,9.16-12.23,19.75-23.42,28.49-35.92,9.51-13.61,18.17-27.87,23.98-43.65,3.48-9.46,8.73-17.9,15.96-25.09,5.19-5.16,10.08-10.62,15.03-16.02,3.66-3.99,4.85-8.84,3.5-13.95-1.32-4.96-3.09-9.84-5.11-14.57-3.13-7.3-4.29-14.67-1.99-22.38,.49-1.65,1.3-3.2,2.56-6.23,2.93,5.3,5.27,9.24,7.34,13.31,6,11.78,16.98,15.45,28.78,17.1,5.35,.75,8.08-4.2,9.3-8.34,1.31-4.46,1.01-9.45,1.08-14.22,.08-6.11-.27-12.22-.21-18.33,.01-1.32,.99-2.63,2.1-5.39,10.8,13.56,18.75,26.97,21.17,43.46,5.76-1.06,11.3-1.89,16.75-3.12,17.04-3.85,29.84,2.91,40.2,15.86,4.81,6.02,6.86,6.66,13.81,3.15,4.73-2.39,9.61-2.65,13.89,0,6.33,3.9,12.3,8.42,18.12,13.06,4.38,3.5,8.27,7.6,11.2,10.33,4.02-1.44,7.64-3.96,9.31-3.02,2.01,1.13,2.38,5.2,3.45,8-2.18,.46-4.35,.92-6.6,1.39,.34,.32,1.59,.98,1.95,1.96,.59,1.59,1.39,4.04,.65,4.96-.85,1.06-3.5,1.53-4.98,1.05-3.42-1.12-6.76-2.69-9.84-4.57-5.91-3.61-11.91-7.19-17.25-11.55-2.24-1.83-2.9-5.6-4.05-8.02-2.05,.95-4.61,1.48-6.15,3.03-1.79,1.8-3.62,4.43-3.78,6.82-.65,9.42,4.51,17.2,8.23,25.33,6.15,13.45,17.91,20.08,30.96,25.08,9.71,3.72,19.01,8,25.69,16.52,6.12,7.82,9.17,16.69,8.69,26.46-.44,9-8.08,16.2-18.03,18.84-2.85,.75-7.39-.98-8.17,3.84-.58,3.6,4.79,11.94,8.41,12.67,3.31,.67,7.11,1.01,10.24,.03,6.09-1.91,11.86-4.84,17.62-7.29,.52,7.13-1.39,10.66-8.39,13.27-5.43,2.02-11.03,3.68-16.68,4.95-3.35,.75-3.84,2.03-2.4,4.76,6.1,11.62,14.33,20.75,27.57,24.38,2.84,.78,4.53,.23,5.64-2.32,6.57-15.11,13.64-30.06,15.44-46.73,1.27-11.72,3.81-23.5,3.3-35.15-.57-13.18-2.98-26.48-6.24-39.31-6.44-25.34-20.01-47.09-36.89-66.78-19.58-22.84-44.19-38.76-71.73-50.22-7.64-3.18-15.9-4.92-23.95-7.07-3.36-.89-4.57-2.73-4.55-6.06,.09-11.83-.02-23.66,.05-35.49,.03-5.42,.99-6.11,6.31-5.15,24.06,4.37,46.14,13.89,67.07,26.2,18.18,10.69,34.72,23.58,49.1,39.06,18.94,20.38,34.66,42.86,45.76,68.61,7.06,16.38,11.81,33.26,14.24,50.78,2.24,16.15,2.77,32.33,1,48.71-2.57,23.66-9.03,46.05-19.35,67.32-10.13,20.9-22.57,40.29-38.42,57.49-13.17,14.29-27.44,27.19-43.94,37.43-9.46,5.87-19.45,10.91-29.19,16.33-.7,.39-1.36,.85-3.54,2.23,5.79,1.19,10.16,2.54,14.61,2.91,14.17,1.18,27.79-1.39,41.14-6.29,11.93-4.38,23.99-5.74,36.65-1.9,12.52,3.8,25.44,6.28,38.16,9.33-2.27,6.54-15.01,13.7-22.56,12.53-9.54-1.48-19.07-3.75-28.64-4-6.93-.18-14.08,1.87-20.87,3.82-9.43,2.71-18.46,6.95-27.96,9.25-11.6,2.81-23.45,1.59-35.24-.17-18.24-2.72-36.5-6.31-54.85-7.09-28.25-1.19-56.04,3.76-83.34,11.1-3.61,.97-7.27,1.74-10.9,2.61-.34-.49-.69-.97-1.03-1.46l.03,.04Zm213.64-127.71c-4.94-.8-9.06-1.09-12.96-2.17-14.67-4.04-22.19-15.71-27.35-28.45-6.11-15.09-10.8-30.78-15.52-46.39-7.62-25.22-15.71-50.23-28.81-73.25-7.39-12.99-14.18-26.46-26.23-36.14-9.33-7.49-19.24-12.88-32.4-9.77,1.61,.44,2.68,.92,3.78,.99,11.74,.83,20.42,7.68,27.15,16.09,7.44,9.3,13.71,19.71,19.36,30.24,15.14,28.18,22.63,58.95,29.22,89.97,4.24,19.99,6.48,40.61,18.09,58.3,6.58,10.04,15.93,15.89,27.78,17.48,1.92,.26,4.77-.31,5.93-1.62,4.14-4.64,7.73-9.77,11.96-15.28h0Zm-35.27-113.42c.76,5.41,1.37,10.85,2.31,16.23,1.24,7.05,2.64,7.97,9.72,7.18,8.87-1,12-4.65,11.29-13.52-.67-8.36-5.44-13.68-13.09-16.53-9.8-3.65-9.82-3.59-10.24,6.65h0Z"/>
  <path class="cls-1" d="M181.26,23.33c0,6-.13,12,.04,18,.11,3.8-1.32,5.85-5.16,6.58-33.83,6.45-61.45,24.19-84.96,48.44-25.87,26.69-43.85,57.92-48.56,95.39-4.27,34.02,.54,66.78,16.87,97.37,8.84,16.55,19.52,31.91,32.97,44.93,15.49,15,33.04,27.38,52.89,36.15,6.53,2.89,13.23,5.41,19.88,8.02,5.84,2.29,6.75,3.37,4.66,9.28-3.48,9.87-7.18,19.69-11.4,29.26-2.86,6.49-3.88,6.36-10.33,3.74-22.17-9-43.42-19.79-62.21-34.67-30.56-24.2-53.86-54.11-69.24-90.13C5.91,270.39,.15,244.23,0,216.65c-.1-18.96,1.49-37.57,6.61-55.84,6.99-24.93,17.89-48.03,33.01-69.02,12.68-17.59,27.34-33.3,44.37-46.96C110.74,23.4,140.79,9.16,173.88,.96c6.87-1.7,7.32-1.32,7.34,5.89,.01,5.5,0,11,0,16.5l.04-.02Z"/>
</svg>